<?xml version="1.0" encoding="UTF-8" standalone="no"?>
<!DOCTYPE svg PUBLIC "-//W3C//DTD SVG 1.1//EN" "http://www.w3.org/Graphics/SVG/1.1/DTD/svg11.dtd">
<!-- Created with Vectornator (http://vectornator.io/) -->
<svg height="100%" stroke-miterlimit="10" style="fill-rule:nonzero;clip-rule:evenodd;stroke-linecap:round;stroke-linejoin:round;" version="1.1" viewBox="0 0 683.099 594.124" width="100%" xml:space="preserve" xmlns="http://www.w3.org/2000/svg" xmlns:vectornator="http://vectornator.io" xmlns:xlink="http://www.w3.org/1999/xlink">
<defs>
<clipPath id="TextBounds">
<rect height="1.63636" width="20" x="483.668" y="275.993"/>
</clipPath>
</defs>
<g id="Layer-1" vectornator:layerName="Layer 1">
<path d="M59.4972 20.3039L600.281 20.3039L600.281 560.485L261.49 560.485L59.4972 560.485L59.4972 20.3039Z" fill="#dddddd" fill-rule="nonzero" opacity="1" stroke="#8b8b8b" stroke-linecap="butt" stroke-linejoin="round" stroke-opacity="0" stroke-width="6.06536"/>
</g>
<g id="Layer-2" vectornator:layerName="Layer 2">
<path d="M191.369 89.4126C189.546 89.1548 187.942 90.5757 187.932 92.4126L187.182 223.35C186.263 224.107 185.367 224.834 183.932 226.256C180.682 229.477 177.423 233.326 174.401 237.819C163.571 253.92 158.292 273.772 161.557 297.256C164.547 318.76 170.302 334.294 177.807 344.819C180.498 348.592 183.231 351.448 185.901 353.538C186.638 354.115 187.283 354.535 187.932 354.944L187.526 484.225C187.521 485.903 188.879 487.256 190.557 487.256L205.432 487.256C205.743 487.256 206.041 487.194 206.338 487.1C207.204 486.825 208.645 486.306 210.463 485.475C213.474 484.1 216.482 482.365 219.307 480.288C227.255 474.443 232.259 466.867 232.619 457.413C232.946 448.849 233.343 424.333 233.807 389.506C233.969 377.328 234.461 336.455 234.463 336.256C234.473 335.4 234.123 334.588 233.494 334.006C233.458 333.972 232.755 333.298 232.463 333.006C231.62 332.163 230.7 331.188 229.682 330.069C226.765 326.862 223.84 323.256 221.119 319.319C213.3 308.004 208.685 296.383 208.838 285.256C208.989 274.305 213.22 265.436 220.182 258.381C222.633 255.898 225.259 253.806 227.869 252.131C228.777 251.549 229.595 251.06 230.338 250.663C230.767 250.434 231.054 250.314 231.182 250.256C232.265 249.765 232.963 248.665 232.963 247.475C232.963 247.475 232.963 125.609 232.963 125.569C232.967 125.172 232.947 124.623 232.901 123.913C232.83 122.836 232.702 121.657 232.494 120.413C231.916 116.94 230.859 113.483 229.182 110.225C226.136 104.308 221.408 99.7129 214.744 97.0688C207.344 94.1326 201.435 92.0835 196.869 90.7563C195.245 90.2842 193.894 89.9362 192.807 89.6938C192.413 89.6059 191.606 89.4568 191.526 89.4438C191.477 89.436 191.369 89.4126 191.369 89.4126ZM193.244 224.725C193.239 225.678 192.791 226.563 192.026 227.131C191.87 227.247 191.519 227.525 191.026 227.944C190.176 228.666 189.215 229.545 188.182 230.569C185.206 233.518 182.221 237.048 179.432 241.194C169.399 256.11 164.508 274.485 167.557 296.413C170.419 316.993 175.84 331.604 182.744 341.288C185.097 344.587 187.439 347.057 189.651 348.788C190.394 349.369 191.049 349.8 191.619 350.131C191.803 350.238 192.119 350.413 192.119 350.413C193.248 350.887 193.998 352.001 193.994 353.225L193.588 481.194L204.869 481.194C205.028 481.138 205.14 481.105 205.401 481.006C206.165 480.718 207.005 480.367 207.932 479.944C210.587 478.731 213.25 477.224 215.713 475.413C222.301 470.569 226.276 464.555 226.557 457.194C226.881 448.706 227.282 424.165 227.744 389.413C227.903 377.531 228.345 339.54 228.369 337.475C228.289 337.395 228.271 337.376 228.182 337.288C227.273 336.379 226.266 335.323 225.182 334.131C222.093 330.735 219.004 326.93 216.119 322.756C207.649 310.498 202.602 297.761 202.776 285.163C202.95 272.533 207.87 262.206 215.869 254.1C218.655 251.278 221.618 248.943 224.588 247.038C225.608 246.383 226.154 246.132 226.901 245.725C226.901 242.325 226.901 125.515 226.901 125.506C226.91 124.633 226.825 123.207 226.526 121.413C226.044 118.523 225.142 115.66 223.776 113.006C221.372 108.337 217.724 104.769 212.494 102.694C205.265 99.8253 199.554 97.8398 195.182 96.5688C194.686 96.4245 194.399 96.3748 193.963 96.2563L193.244 224.725Z" fill="#303030" fill-opacity="0.99099" fill-rule="nonzero" opacity="1" stroke="#303030" stroke-linecap="butt" stroke-linejoin="round" stroke-opacity="0.00900901" stroke-width="6.06536"/>
<path d="M388.073 81.9653C378.502 81.971 368.137 82.1339 357.057 82.4732C338.152 83.0521 317.975 84.1011 297.398 85.4483C285.81 86.2071 274.809 86.9937 264.756 87.8067C261.237 88.0913 252.129 88.8814 251.979 88.8951C249.241 89.1461 248.074 92.9108 250.093 94.9905C250.145 95.0443 250.267 95.1896 250.451 95.3896C250.77 95.7362 251.165 96.1355 251.589 96.6231C252.813 98.0326 254.172 99.7241 255.653 101.666C259.901 107.241 264.163 113.804 268.137 121.258C280.014 143.54 286.891 169.008 286.246 197.233C285.632 224.153 279.353 244.535 268.82 261.234C265.236 266.915 262.533 270.371 256.596 277.379C251.29 283.641 250.037 285.481 250.191 288.735C250.326 291.613 251.291 292.973 256.823 299.91C262.283 306.757 265.397 311.019 269.015 317.071C281.314 337.645 287.914 362.653 286.604 395.367C285.399 425.455 278.97 445.659 268.43 460.493C265.329 464.857 262.539 468.029 257.831 472.793C252.614 478.072 251.394 479.42 250.061 482.008C249.126 483.823 248.671 485.703 248.728 487.668C248.782 489.537 250.141 491.037 251.816 491.079L452.056 496.049C452.752 496.067 453.445 495.82 454.006 495.36C454.407 495.032 455.116 494.41 456.087 493.51C457.681 492.033 459.454 490.278 461.354 488.249C466.763 482.473 472.145 475.63 477.187 467.75C491.02 446.131 499.58 420.914 500.238 392.284C500.902 363.383 494.488 341.607 482.097 320.808C479.159 315.878 470.292 302.623 469.71 301.688C466.254 296.139 464.805 292.551 464.93 289.533C465.027 287.206 465.836 285.225 467.629 282.821C467.728 282.689 478.156 271.161 481.869 265.587C492.494 249.638 498.762 226.871 499.88 191.21C500.188 181.407 500.089 172.285 499.62 163.817C499.603 163.245 499.537 162.071 499.393 160.443C499.156 157.762 498.778 154.794 498.255 151.59C496.758 142.433 494.304 133.255 490.647 124.669C482.473 105.475 469.547 91.9757 451.015 86.9359C438.373 83.4977 416.785 81.9482 388.073 81.9653ZM357.219 89.5119C338.386 90.0886 318.304 91.1074 297.788 92.4507C286.23 93.2075 275.236 94.0346 265.211 94.8453C263.515 94.9825 261.726 95.1624 259.066 95.3896C259.544 95.9923 259.963 96.4371 260.464 97.0948C264.934 102.959 269.404 109.821 273.567 117.63C286.017 140.987 293.23 167.761 292.553 197.414C291.906 225.754 285.226 247.484 273.989 265.297C270.181 271.334 267.315 274.963 261.18 282.205C259.018 284.756 258.081 285.943 257.343 287.03C256.966 287.586 256.697 288.05 256.563 288.372C256.509 288.503 256.504 288.471 256.498 288.336C256.493 288.224 256.533 288.315 256.628 288.518C256.807 288.898 257.108 289.375 257.538 290.005C258.317 291.145 259.074 292.141 261.537 295.23C267.177 302.302 270.463 306.8 274.282 313.189C287.308 334.979 294.283 361.407 292.911 395.658C291.648 427.185 284.793 448.854 273.404 464.883C270.042 469.615 267 473.016 262.057 478.017C258.682 481.433 257.386 482.896 256.498 484.149L451.08 488.975C451.382 488.707 451.691 488.442 452.056 488.104C453.538 486.731 455.174 485.082 456.965 483.169C462.101 477.685 467.25 471.19 472.05 463.686C485.193 443.145 493.308 419.222 493.931 392.102C494.559 364.753 488.542 344.386 476.83 324.727C474.01 319.993 465.187 306.806 464.508 305.715C460.318 298.987 458.447 294.203 458.656 289.207C458.823 285.179 460.179 281.816 462.785 278.322C463.188 277.782 473.434 266.464 476.797 261.415C486.6 246.699 492.497 225.308 493.573 190.992C493.874 181.41 493.773 172.506 493.313 164.18C493.309 164.066 493.303 163.799 493.281 163.418C493.242 162.763 493.195 161.998 493.118 161.132C492.897 158.637 492.537 155.831 492.045 152.824C490.642 144.236 488.355 135.656 484.958 127.68C477.541 110.266 466.028 98.2465 449.52 93.7569C437.439 90.4713 416.18 88.9816 387.845 89.004C378.4 89.0114 368.153 89.1771 357.219 89.5119Z" fill="#303030" fill-opacity="0.99099" fill-rule="nonzero" opacity="1" stroke="#303030" stroke-linecap="butt" stroke-linejoin="round" stroke-opacity="0.00900901" stroke-width="6.06536"/>
<path d="M320.253 129.531C317.987 129.511 316.449 132.097 317.327 134.429C317.391 134.599 317.529 134.936 317.717 135.481C318.038 136.409 318.403 137.499 318.79 138.746C319.904 142.33 320.998 146.445 322.042 150.973C325.4 165.55 327.252 181.065 326.756 196.761C326.296 211.283 323.622 226.866 319.473 242.476C317.863 248.534 316.125 254.166 314.401 259.238C313.8 261.009 313.243 262.566 312.743 263.919C312.57 264.389 312.182 265.49 312.158 265.551C311.236 267.888 312.763 270.504 315.052 270.486L419.837 269.651C420.362 269.647 420.872 269.499 421.332 269.216C421.684 268.999 422.298 268.612 423.12 268.018C424.459 267.053 425.918 265.87 427.509 264.499C432.03 260.604 436.564 255.832 440.774 250.131C452.799 233.85 460.021 213.401 460.021 188.598C460.021 162.887 457.388 147.064 452.251 138.492C448.053 131.488 443.444 129.765 435.637 129.93C427.921 130.092 408.001 130.078 379.717 129.93C371.917 129.889 320.373 129.532 320.253 129.531ZM328.154 149.195C331.653 164.383 333.583 180.584 333.063 197.015C332.583 212.205 329.809 228.336 325.52 244.471C323.864 250.704 322.095 256.513 320.318 261.742C320.105 262.37 319.936 262.83 319.733 263.411L418.959 262.612C419.187 262.456 419.4 262.302 419.674 262.104C420.868 261.244 422.225 260.196 423.673 258.948C427.837 255.361 432.002 250.943 435.897 245.669C447.031 230.594 453.714 211.684 453.714 188.598C453.714 164.166 451.285 149.534 447.016 142.411C444.281 137.846 441.616 136.845 435.735 136.969C427.946 137.133 408.033 137.117 379.685 136.969C372.478 136.931 331.641 136.655 324.773 136.606C325.928 140.336 327.078 144.527 328.154 149.195Z" fill="#dddddd" fill-rule="nonzero" opacity="1" stroke="#303030" stroke-linecap="butt" stroke-linejoin="round" stroke-opacity="0.00900901" stroke-width="6.06536"/>
<path d="M315.312 309.488C312.744 309.477 311.258 312.703 312.743 315.04C312.822 315.163 312.971 315.452 313.231 315.91C313.681 316.705 314.21 317.669 314.759 318.777C316.345 321.979 317.917 325.761 319.408 330.097C323.821 342.928 326.428 357.735 326.268 374.324C326.111 390.641 324.625 407.116 322.237 422.942C321.351 428.813 320.388 434.159 319.441 438.906C319.11 440.562 318.805 442.048 318.53 443.296C318.435 443.73 318.219 444.727 318.205 444.783C317.679 446.99 319.15 449.165 321.196 449.21L434.499 451.677C435.071 451.689 435.629 451.523 436.125 451.205C436.968 450.665 438.317 449.628 439.994 448.012C442.719 445.385 445.442 442.091 447.959 438.035C455.49 425.903 459.79 409.757 459.273 389.2C458.737 367.865 453.853 348.229 446.009 333.289C438.644 319.262 429.192 310.571 420.519 310.323C420.519 310.323 396.109 309.96 368.858 309.779C357.144 309.701 315.521 309.489 315.312 309.488ZM325.325 327.557C330.013 341.187 332.744 356.881 332.575 374.397C332.414 391.112 330.885 407.938 328.446 424.103C327.541 430.1 326.589 435.603 325.618 440.466C325.483 441.142 325.355 441.631 325.228 442.244L433.654 444.602L433.687 444.602C434.337 444.095 435.063 443.452 435.865 442.679C438.199 440.429 440.552 437.56 442.757 434.008C449.523 423.109 453.445 408.438 452.966 389.381C452.459 369.21 447.877 350.744 440.579 336.845C434.203 324.701 420.357 317.362 420.357 317.362C414.528 317.195 396.01 316.998 368.826 316.817C358.316 316.747 327.913 316.601 320.774 316.563C322.327 319.808 323.883 323.364 325.325 327.557Z" fill="#dddddd" fill-rule="nonzero" opacity="1" stroke="#303030" stroke-linecap="butt" stroke-linejoin="round" stroke-opacity="0.00900901" stroke-width="6.06536"/>
<g fill="#303030" fill-opacity="0.99099" opacity="1" stroke="#303030" stroke-linecap="butt" stroke-linejoin="round" stroke-opacity="0.00900901" stroke-width="6.06536">
<path clip-path="url(#TextBounds)" d="M525.647 367.995L493.029 367.995L493.029 296.022L527.99 296.022C536.812 296.152 543.062 298.707 546.74 303.688C548.954 306.748 550.061 310.41 550.061 314.674C550.061 319.069 548.954 322.601 546.74 325.27C545.503 326.767 543.681 328.135 541.272 329.371C544.95 330.706 547.725 332.822 549.597 335.719C551.469 338.616 552.404 342.132 552.404 346.266C552.404 350.53 551.33 354.355 549.182 357.741C547.815 359.987 546.106 361.875 544.055 363.405C541.744 365.162 539.017 366.367 535.876 367.018C532.735 367.669 529.325 367.995 525.647 367.995ZM532.434 354.225C535.624 352.662 537.219 349.668 537.219 345.241C537.219 341.497 535.673 338.926 532.58 337.526C530.855 336.745 528.43 336.338 525.305 336.305L507.385 336.305L507.385 355.495L525.061 355.495C528.218 355.495 530.676 355.071 532.434 354.225ZM531.799 309.645C529.553 308.896 526.688 308.522 523.205 308.522L507.385 308.522L507.385 324.391L525.061 324.391C528.218 324.391 530.782 323.797 532.751 322.609C534.721 321.421 535.705 319.313 535.705 316.286C535.705 312.933 534.403 310.719 531.799 309.645Z"/>
<path clip-path="url(#TextBounds)" d="M491.955 411.022L505.871 411.022L505.871 482.995L491.955 482.995L491.955 411.022Z"/>
<path clip-path="url(#TextBounds)" d="M525.207 573.727L525.207 544.772L539.319 544.772L539.319 597.995L525.793 597.995L525.793 590.475C525.663 590.638 525.337 591.126 524.817 591.94C524.296 592.754 523.677 593.47 522.961 594.088C520.78 596.041 518.672 597.376 516.638 598.092C514.603 598.808 512.219 599.166 509.485 599.166C501.607 599.166 496.301 596.334 493.567 590.67C492.037 587.545 491.272 582.939 491.272 576.852L491.272 544.772L505.529 544.772L505.529 576.852C505.529 579.879 505.888 582.158 506.604 583.688C507.873 586.39 510.363 587.741 514.074 587.741C518.827 587.741 522.082 585.82 523.84 581.979C524.751 579.896 525.207 577.145 525.207 573.727Z"/>
<path clip-path="url(#TextBounds)" d="M534.68 662.799C538.163 665.696 539.904 670.482 539.904 677.155L539.904 712.995L525.647 712.995L525.647 680.621C525.647 677.822 525.272 675.674 524.524 674.176C523.156 671.442 520.552 670.075 516.711 670.075C511.991 670.075 508.752 672.077 506.994 676.08C506.083 678.196 505.627 680.898 505.627 684.186L505.627 712.995L491.76 712.995L491.76 659.87L505.188 659.87L505.188 667.633C506.978 664.899 508.671 662.929 510.266 661.725C513.13 659.577 516.76 658.502 521.154 658.502C526.656 658.502 531.164 659.935 534.68 662.799Z"/>
<path clip-path="url(#TextBounds)" d="M508.215 817.35C508.768 817.903 510.461 818.18 513.293 818.18C513.716 818.18 514.164 818.172 514.636 818.156C515.108 818.139 515.572 818.115 516.028 818.082L516.028 828.483L509.436 828.727C502.86 828.955 498.368 827.815 495.959 825.309C494.397 823.714 493.615 821.256 493.615 817.936L493.615 785.172L486.194 785.172L486.194 775.26L493.615 775.26L493.615 760.416L507.385 760.416L507.385 775.26L516.028 775.26L516.028 785.172L507.385 785.172L507.385 813.297C507.385 815.478 507.662 816.829 508.215 817.35Z"/>
<path clip-path="url(#TextBounds)" d="M491.613 871.022L506.555 871.022L506.555 942.995L491.613 942.995L491.613 871.022Z"/>
<path clip-path="url(#TextBounds)" d="M534.68 1007.8C538.163 1010.7 539.904 1015.48 539.904 1022.15L539.904 1057.99L525.647 1057.99L525.647 1025.62C525.647 1022.82 525.272 1020.67 524.524 1019.18C523.156 1016.44 520.552 1015.07 516.711 1015.07C511.991 1015.07 508.752 1017.08 506.994 1021.08C506.083 1023.2 505.627 1025.9 505.627 1029.19L505.627 1057.99L491.76 1057.99L491.76 1004.87L505.188 1004.87L505.188 1012.63C506.978 1009.9 508.671 1007.93 510.266 1006.72C513.13 1004.58 516.76 1003.5 521.154 1003.5C526.656 1003.5 531.164 1004.93 534.68 1007.8Z"/>
<path clip-path="url(#TextBounds)" d="M505.822 1130.32C504.52 1131.26 503.869 1132.37 503.869 1133.64C503.869 1135.23 504.553 1136.39 505.92 1137.11C507.287 1137.85 512.121 1139.14 520.422 1140.96C525.956 1142.27 530.106 1144.23 532.873 1146.87C535.608 1149.54 536.975 1152.88 536.975 1156.88C536.975 1162.15 535.014 1166.46 531.091 1169.8C527.168 1173.13 521.106 1174.8 512.903 1174.8C504.537 1174.8 498.36 1173.04 494.372 1169.5C490.385 1165.97 488.391 1161.47 488.391 1156L502.502 1156C502.795 1158.48 503.43 1160.23 504.406 1161.28C506.132 1163.13 509.322 1164.06 513.977 1164.06C516.711 1164.06 518.884 1163.65 520.495 1162.84C522.107 1162.02 522.912 1160.8 522.912 1159.18C522.912 1157.61 522.261 1156.43 520.959 1155.61C519.657 1154.8 514.823 1153.4 506.457 1151.41C500.435 1149.92 496.187 1148.04 493.713 1145.8C491.239 1143.58 490.002 1140.39 490.002 1136.23C490.002 1131.31 491.931 1127.09 495.788 1123.56C499.646 1120.02 505.074 1118.26 512.072 1118.26C518.713 1118.26 524.125 1119.58 528.308 1122.24C532.491 1124.89 534.891 1129.47 535.51 1135.98L521.594 1135.98C521.399 1134.19 520.894 1132.78 520.08 1131.73C518.55 1129.85 515.946 1128.9 512.268 1128.9C509.24 1128.9 507.092 1129.37 505.822 1130.32Z"/>
<path clip-path="url(#TextBounds)" d="M508.215 1277.35C508.768 1277.9 510.461 1278.18 513.293 1278.18C513.716 1278.18 514.164 1278.17 514.636 1278.16C515.108 1278.14 515.572 1278.11 516.028 1278.08L516.028 1288.48L509.436 1288.73C502.86 1288.95 498.368 1287.82 495.959 1285.31C494.397 1283.71 493.615 1281.26 493.615 1277.94L493.615 1245.17L486.194 1245.17L486.194 1235.26L493.615 1235.26L493.615 1220.42L507.385 1220.42L507.385 1235.26L516.028 1235.26L516.028 1245.17L507.385 1245.17L507.385 1273.3C507.385 1275.48 507.662 1276.83 508.215 1277.35Z"/>
<path clip-path="url(#TextBounds)" d="M520.08 1362.66C519.397 1362.63 518.843 1362.61 518.42 1362.61C512.821 1362.61 509.061 1364.44 507.141 1368.08C506.067 1370.13 505.529 1373.29 505.529 1377.56L505.529 1402.99L491.516 1402.99L491.516 1349.77L504.797 1349.77L504.797 1359.05C506.946 1355.5 508.817 1353.08 510.412 1351.77C513.016 1349.59 516.402 1348.5 520.569 1348.5C520.829 1348.5 521.049 1348.51 521.228 1348.53C521.407 1348.54 521.806 1348.57 522.424 1348.6L522.424 1362.86C521.545 1362.76 520.764 1362.7 520.08 1362.66Z"/>
<path clip-path="url(#TextBounds)" d="M525.207 1493.73L525.207 1464.77L539.319 1464.77L539.319 1517.99L525.793 1517.99L525.793 1510.47C525.663 1510.64 525.337 1511.13 524.817 1511.94C524.296 1512.75 523.677 1513.47 522.961 1514.09C520.78 1516.04 518.672 1517.38 516.638 1518.09C514.603 1518.81 512.219 1519.17 509.485 1519.17C501.607 1519.17 496.301 1516.33 493.567 1510.67C492.037 1507.55 491.272 1502.94 491.272 1496.85L491.272 1464.77L505.529 1464.77L505.529 1496.85C505.529 1499.88 505.888 1502.16 506.604 1503.69C507.873 1506.39 510.363 1507.74 514.074 1507.74C518.827 1507.74 522.082 1505.82 523.84 1501.98C524.751 1499.9 525.207 1497.14 525.207 1493.73Z"/>
<path clip-path="url(#TextBounds)" d="M521.545 1594.42C520.373 1591.85 518.078 1590.56 514.66 1590.56C510.689 1590.56 508.02 1591.85 506.653 1594.42C505.904 1595.89 505.529 1598.07 505.529 1600.96L505.529 1632.99L491.418 1632.99L491.418 1579.87L504.944 1579.87L504.944 1587.63C506.669 1584.87 508.296 1582.9 509.826 1581.72C512.528 1579.64 516.028 1578.6 520.324 1578.6C524.393 1578.6 527.681 1579.5 530.188 1581.29C532.206 1582.95 533.736 1585.08 534.778 1587.68C536.6 1584.56 538.863 1582.26 541.565 1580.8C544.429 1579.33 547.619 1578.6 551.135 1578.6C553.479 1578.6 555.79 1579.06 558.069 1579.97C560.347 1580.88 562.414 1582.47 564.27 1584.75C565.767 1586.61 566.776 1588.89 567.297 1591.59C567.623 1593.38 567.785 1596 567.785 1599.45L567.688 1632.99L553.43 1632.99L553.43 1599.11C553.43 1597.09 553.104 1595.43 552.453 1594.13C551.216 1591.65 548.938 1590.42 545.617 1590.42C541.776 1590.42 539.123 1592.01 537.658 1595.2C536.91 1596.89 536.535 1598.93 536.535 1601.31L536.535 1632.99L522.522 1632.99L522.522 1601.31C522.522 1598.15 522.196 1595.85 521.545 1594.42Z"/>
<path clip-path="url(#TextBounds)" d="M513.147 1749.75C506.376 1749.75 500.403 1747.57 495.227 1743.21C490.051 1738.85 487.463 1731.75 487.463 1721.92C487.463 1712.71 489.799 1705.64 494.47 1700.73C499.141 1695.81 505.204 1693.36 512.658 1693.36C517.085 1693.36 521.073 1694.19 524.621 1695.85C528.169 1697.51 531.099 1700.13 533.41 1703.71C535.494 1706.86 536.845 1710.53 537.463 1714.69C537.821 1717.14 537.968 1720.65 537.903 1725.24L501.477 1725.24C501.672 1730.58 503.348 1734.32 506.506 1736.47C508.427 1737.81 510.738 1738.47 513.44 1738.47C516.304 1738.47 518.632 1737.66 520.422 1736.03C521.399 1735.15 522.261 1733.93 523.01 1732.37L537.219 1732.37C536.861 1735.53 535.217 1738.73 532.287 1741.99C527.73 1747.16 521.35 1749.75 513.147 1749.75ZM512.658 1704.83C509.436 1704.83 506.937 1705.84 505.163 1707.86C503.389 1709.88 502.274 1712.61 501.819 1716.06L523.449 1716.06C523.222 1712.38 522.107 1709.59 520.105 1707.69C518.103 1705.78 515.621 1704.83 512.658 1704.83Z"/>
<path clip-path="url(#TextBounds)" d="M534.68 1812.8C538.163 1815.7 539.904 1820.48 539.904 1827.15L539.904 1862.99L525.647 1862.99L525.647 1830.62C525.647 1827.82 525.272 1825.67 524.524 1824.18C523.156 1821.44 520.552 1820.07 516.711 1820.07C511.991 1820.07 508.752 1822.08 506.994 1826.08C506.083 1828.2 505.627 1830.9 505.627 1834.19L505.627 1862.99L491.76 1862.99L491.76 1809.87L505.188 1809.87L505.188 1817.63C506.978 1814.9 508.671 1812.93 510.266 1811.72C513.13 1809.58 516.76 1808.5 521.154 1808.5C526.656 1808.5 531.164 1809.93 534.68 1812.8Z"/>
<path clip-path="url(#TextBounds)" d="M508.215 1967.35C508.768 1967.9 510.461 1968.18 513.293 1968.18C513.716 1968.18 514.164 1968.17 514.636 1968.16C515.108 1968.14 515.572 1968.11 516.028 1968.08L516.028 1978.48L509.436 1978.73C502.86 1978.95 498.368 1977.82 495.959 1975.31C494.397 1973.71 493.615 1971.26 493.615 1967.94L493.615 1935.17L486.194 1935.17L486.194 1925.26L493.615 1925.26L493.615 1910.42L507.385 1910.42L507.385 1925.26L516.028 1925.26L516.028 1935.17L507.385 1935.17L507.385 1963.3C507.385 1965.48 507.662 1966.83 508.215 1967.35Z"/>
<path clip-path="url(#TextBounds)" d="M505.822 2050.32C504.52 2051.26 503.869 2052.37 503.869 2053.64C503.869 2055.23 504.553 2056.39 505.92 2057.11C507.287 2057.85 512.121 2059.14 520.422 2060.96C525.956 2062.27 530.106 2064.23 532.873 2066.87C535.608 2069.54 536.975 2072.88 536.975 2076.88C536.975 2082.15 535.014 2086.46 531.091 2089.8C527.168 2093.13 521.106 2094.8 512.903 2094.8C504.537 2094.8 498.36 2093.04 494.372 2089.5C490.385 2085.97 488.391 2081.47 488.391 2076L502.502 2076C502.795 2078.48 503.43 2080.23 504.406 2081.28C506.132 2083.13 509.322 2084.06 513.977 2084.06C516.711 2084.06 518.884 2083.65 520.495 2082.84C522.107 2082.02 522.912 2080.8 522.912 2079.18C522.912 2077.61 522.261 2076.43 520.959 2075.61C519.657 2074.8 514.823 2073.4 506.457 2071.41C500.435 2069.92 496.187 2068.04 493.713 2065.8C491.239 2063.58 490.002 2060.39 490.002 2056.23C490.002 2051.31 491.931 2047.09 495.788 2043.56C499.646 2040.02 505.074 2038.26 512.072 2038.26C518.713 2038.26 524.125 2039.58 528.308 2042.24C532.491 2044.89 534.891 2049.47 535.51 2055.98L521.594 2055.98C521.399 2054.19 520.894 2052.78 520.08 2051.73C518.55 2049.85 515.946 2048.9 512.268 2048.9C509.24 2048.9 507.092 2049.37 505.822 2050.32Z"/>
</g>
</g>
</svg>
