<?xml version="1.0" encoding="UTF-8" standalone="no"?>
<!DOCTYPE svg PUBLIC "-//W3C//DTD SVG 1.1//EN" "http://www.w3.org/Graphics/SVG/1.1/DTD/svg11.dtd">
<!-- Created with Vectornator (http://vectornator.io/) -->
<svg height="100%" stroke-miterlimit="10" style="fill-rule:nonzero;clip-rule:evenodd;stroke-linecap:round;stroke-linejoin:round;" version="1.1" viewBox="0 0 1979.3 594.124" width="100%" xml:space="preserve" xmlns="http://www.w3.org/2000/svg" xmlns:vectornator="http://vectornator.io" xmlns:xlink="http://www.w3.org/1999/xlink">
<defs>
<clipPath id="TextBounds">
<rect height="466.327" width="1426.09" x="552.821" y="75.4025"/>
</clipPath>
</defs>
<g id="Layer-2" vectornator:layerName="Layer 2">
<path d="M187.781 89.1562L187.031 221.438C187.031 221.438 154.687 245.466 161.375 293.562C168.063 341.659 187.781 349.937 187.781 349.938L187.375 480.969L202.25 480.969C202.25 480.969 225.663 473.519 226.406 454.031C227.149 434.544 228.25 332.969 228.25 332.969C228.25 332.969 202.253 308.919 202.625 281.969C202.997 255.018 226.75 244.219 226.75 244.219L226.75 122.312C226.75 122.312 227.157 103.259 210.438 96.625C193.718 89.991 187.781 89.1563 187.781 89.1562Z" fill="#dddddd" fill-rule="nonzero" opacity="1" stroke="#dddddd" stroke-linecap="butt" stroke-linejoin="round" stroke-width="6.06536"/>
<path d="M384.656 85.75C375.211 85.7575 364.965 85.9152 354.031 86.25C335.198 86.8267 315.11 87.8442 294.594 89.1875C283.036 89.9443 272.056 90.783 262.031 91.5938C260.335 91.7309 258.535 91.8979 255.875 92.125C256.353 92.7277 256.78 93.1861 257.281 93.8438C261.75 99.7076 266.212 106.565 270.375 114.375C282.825 137.731 290.052 164.503 289.375 194.156C288.728 222.496 282.049 244.218 270.812 262.031C267.004 268.068 264.136 271.696 258 278.938C255.838 281.489 254.894 282.694 254.156 283.781C253.779 284.337 253.509 284.803 253.375 285.125C253.321 285.256 253.319 285.229 253.312 285.094C253.307 284.981 253.342 285.048 253.438 285.25C253.616 285.63 253.914 286.12 254.344 286.75C255.122 287.89 255.88 288.88 258.344 291.969C263.984 299.041 267.274 303.548 271.094 309.938C284.119 331.728 291.09 358.156 289.719 392.406C288.456 423.934 281.608 445.596 270.219 461.625C266.857 466.357 263.818 469.748 258.875 474.75C255.499 478.166 254.201 479.653 253.312 480.906L447.906 485.719C448.208 485.451 448.51 485.182 448.875 484.844C450.357 483.471 451.991 481.818 453.781 479.906C458.918 474.422 464.074 467.941 468.875 460.438C482.018 439.896 490.127 415.963 490.75 388.844C491.378 361.495 485.369 341.128 473.656 321.469C470.836 316.735 461.992 303.56 461.312 302.469C457.122 295.741 455.26 290.934 455.469 285.938C455.637 281.909 456.988 278.556 459.594 275.062C459.997 274.522 470.262 263.205 473.625 258.156C483.428 243.44 489.33 222.066 490.406 187.75C490.707 178.168 490.585 169.263 490.125 160.938C490.121 160.823 490.116 160.537 490.094 160.156C490.055 159.501 490.014 158.741 489.938 157.875C489.717 155.38 489.366 152.569 488.875 149.562C487.472 140.975 485.178 132.413 481.781 124.438C474.365 107.023 462.852 94.9896 446.344 90.5C434.262 87.2144 412.992 85.7276 384.656 85.75ZM317.062 126.281C317.182 126.282 368.731 126.647 376.531 126.688C404.815 126.836 424.752 126.85 432.469 126.688C440.276 126.523 444.865 128.246 449.062 135.25C454.199 143.821 456.844 159.633 456.844 185.344C456.844 210.147 449.619 230.593 437.594 246.875C433.384 252.576 428.833 257.355 424.312 261.25C422.721 262.621 421.276 263.785 419.938 264.75C419.115 265.343 418.508 265.752 418.156 265.969C417.696 266.252 417.182 266.402 416.656 266.406L311.875 267.219C309.587 267.237 308.046 264.618 308.969 262.281C308.993 262.22 309.389 261.126 309.562 260.656C310.062 259.304 310.617 257.74 311.219 255.969C312.942 250.896 314.671 245.277 316.281 239.219C320.43 223.609 323.103 208.022 323.562 193.5C324.059 177.804 322.233 162.295 318.875 147.719C317.832 143.191 316.708 139.084 315.594 135.5C315.206 134.253 314.852 133.146 314.531 132.219C314.343 131.674 314.22 131.357 314.156 131.188C313.278 128.856 314.796 126.262 317.062 126.281ZM312.125 306.219C312.334 306.22 353.973 306.453 365.688 306.531C392.938 306.713 417.344 307.063 417.344 307.062C426.016 307.311 435.448 316.004 442.812 330.031C450.657 344.971 455.558 364.602 456.094 385.938C456.61 406.495 452.312 422.65 444.781 434.781C442.264 438.837 439.538 442.123 436.812 444.75C435.136 446.366 433.781 447.397 432.938 447.938C432.441 448.255 431.884 448.419 431.312 448.406L318 445.969C315.954 445.924 314.506 443.738 315.031 441.531C315.045 441.474 315.248 440.465 315.344 440.031C315.618 438.783 315.919 437.313 316.25 435.656C317.198 430.91 318.176 425.559 319.062 419.688C321.451 403.862 322.937 387.379 323.094 371.062C323.254 354.473 320.632 339.675 316.219 326.844C314.727 322.508 313.149 318.733 311.562 315.531C311.014 314.423 310.513 313.45 310.062 312.656C309.803 312.198 309.641 311.905 309.562 311.781C308.078 309.444 309.558 306.207 312.125 306.219Z" fill="#dddddd" fill-rule="nonzero" opacity="1" stroke="#8b8b8b" stroke-linecap="butt" stroke-linejoin="round" stroke-opacity="0" stroke-width="6.06536"/>
<path d="M384.906 78.7188C375.336 78.7244 364.956 78.8794 353.875 79.2188C334.97 79.7976 314.796 80.8402 294.219 82.1875C282.631 82.9462 271.615 83.7495 261.562 84.5625C258.043 84.8471 248.962 85.6112 248.812 85.625C246.074 85.876 244.887 89.639 246.906 91.7188C246.959 91.7726 247.097 91.925 247.281 92.125C247.6 92.4716 247.983 92.8874 248.406 93.375C249.631 94.7844 250.988 96.4641 252.469 98.4062C256.717 103.981 260.995 110.545 264.969 118C276.846 140.281 283.707 165.745 283.062 193.969C282.448 220.89 276.158 241.27 265.625 257.969C262.041 263.65 259.344 267.117 253.406 274.125C248.1 280.387 246.847 282.214 247 285.469C247.136 288.347 248.124 289.719 253.656 296.656C259.117 303.503 262.226 307.76 265.844 313.812C278.142 334.386 284.716 359.411 283.406 392.125C282.958 403.321 281.804 413.152 279.969 421.844C276.873 436.509 271.868 447.936 265.25 457.25C262.15 461.614 259.364 464.767 254.656 469.531C249.44 474.81 248.208 476.162 246.875 478.75C245.94 480.564 245.475 482.441 245.531 484.406C245.585 486.275 246.95 487.77 248.625 487.812L448.875 492.781C449.571 492.799 450.251 492.554 450.812 492.094C451.213 491.765 451.935 491.15 452.906 490.25C454.5 488.774 456.287 487.029 458.188 485C463.597 479.224 468.958 472.38 474 464.5C485.446 446.61 493.199 426.213 495.938 403.5L495.938 395.25L496.688 395.25C496.821 393.18 497.014 391.138 497.062 389.031C497.727 360.13 491.297 338.361 478.906 317.562C475.969 312.632 467.113 299.372 466.531 298.438C463.076 292.889 461.624 289.299 461.75 286.281C461.847 283.954 462.645 281.966 464.438 279.562C464.536 279.43 474.975 267.917 478.688 262.344C489.312 246.394 495.569 223.63 496.688 187.969C496.995 178.166 496.906 169.031 496.438 160.562C496.42 159.991 496.363 158.816 496.219 157.188C495.982 154.507 495.586 151.547 495.062 148.344C493.566 139.187 491.125 129.992 487.469 121.406C479.294 102.213 466.375 88.7273 447.844 83.6875C435.201 80.2493 413.618 78.7017 384.906 78.7188ZM384.656 85.75C412.992 85.7276 434.262 87.2144 446.344 90.5C462.852 94.9896 474.365 107.023 481.781 124.438C485.178 132.413 487.472 140.975 488.875 149.562C489.366 152.569 489.717 155.38 489.938 157.875C490.014 158.741 490.055 159.501 490.094 160.156C490.116 160.537 490.121 160.823 490.125 160.938C490.585 169.263 490.707 178.168 490.406 187.75C489.33 222.066 483.428 243.44 473.625 258.156C470.262 263.205 459.997 274.522 459.594 275.062C456.988 278.556 455.637 281.909 455.469 285.938C455.26 290.934 457.122 295.741 461.312 302.469C461.992 303.56 470.836 316.735 473.656 321.469C485.369 341.128 491.378 361.495 490.75 388.844C490.127 415.963 482.018 439.896 468.875 460.438C464.074 467.941 458.918 474.422 453.781 479.906C451.991 481.818 450.357 483.471 448.875 484.844C448.51 485.182 448.208 485.451 447.906 485.719L253.312 480.906C254.201 479.653 255.499 478.166 258.875 474.75C263.818 469.748 266.857 466.357 270.219 461.625C281.608 445.596 288.456 423.934 289.719 392.406C291.09 358.156 284.119 331.728 271.094 309.938C267.274 303.548 263.984 299.041 258.344 291.969C255.88 288.88 255.122 287.89 254.344 286.75C253.914 286.12 253.616 285.63 253.438 285.25C253.342 285.048 253.307 284.981 253.312 285.094C253.319 285.229 253.321 285.256 253.375 285.125C253.509 284.803 253.779 284.337 254.156 283.781C254.894 282.694 255.838 281.489 258 278.938C264.136 271.696 267.004 268.068 270.812 262.031C282.049 244.218 288.728 222.496 289.375 194.156C290.052 164.503 282.825 137.731 270.375 114.375C266.212 106.565 261.75 99.7076 257.281 93.8438C256.78 93.1861 256.353 92.7277 255.875 92.125C258.535 91.8979 260.335 91.7309 262.031 91.5938C272.056 90.783 283.036 89.9443 294.594 89.1875C315.11 87.8442 335.198 86.8267 354.031 86.25C364.965 85.9152 375.211 85.7575 384.656 85.75Z" fill="#dddddd" fill-rule="nonzero" opacity="1" stroke="#8b8b8b" stroke-linecap="butt" stroke-linejoin="round" stroke-opacity="0" stroke-width="6.06536"/>
<path d="M317.062 126.281C314.796 126.262 313.278 128.856 314.156 131.188C314.22 131.357 314.343 131.674 314.531 132.219C314.852 133.146 315.206 134.253 315.594 135.5C316.708 139.084 317.832 143.191 318.875 147.719C322.233 162.295 324.059 177.804 323.562 193.5C323.103 208.022 320.43 223.609 316.281 239.219C314.671 245.277 312.942 250.896 311.219 255.969C310.617 257.74 310.062 259.304 309.562 260.656C309.389 261.126 308.993 262.22 308.969 262.281C308.046 264.618 309.587 267.237 311.875 267.219L416.656 266.406C417.182 266.402 417.696 266.252 418.156 265.969C418.508 265.752 419.115 265.343 419.938 264.75C421.276 263.785 422.721 262.621 424.312 261.25C428.833 257.355 433.384 252.576 437.594 246.875C449.619 230.593 456.844 210.147 456.844 185.344C456.844 159.633 454.199 143.821 449.062 135.25C444.865 128.246 440.276 126.523 432.469 126.688C424.752 126.85 404.815 126.836 376.531 126.688C368.731 126.647 317.182 126.282 317.062 126.281Z" fill="#8b8b8b" fill-opacity="0" fill-rule="nonzero" opacity="1" stroke="none"/>
<path d="M312.125 306.219C309.558 306.207 308.078 309.444 309.562 311.781C309.641 311.905 309.803 312.198 310.062 312.656C310.513 313.45 311.014 314.423 311.562 315.531C313.149 318.733 314.727 322.508 316.219 326.844C320.632 339.675 323.254 354.473 323.094 371.062C322.937 387.379 321.451 403.862 319.062 419.688C318.176 425.559 317.198 430.91 316.25 435.656C315.919 437.313 315.618 438.783 315.344 440.031C315.248 440.465 315.045 441.474 315.031 441.531C314.506 443.738 315.954 445.924 318 445.969L431.312 448.406C431.884 448.419 432.441 448.255 432.938 447.938C433.781 447.397 435.136 446.366 436.812 444.75C439.538 442.123 442.264 438.837 444.781 434.781C452.312 422.65 456.61 406.495 456.094 385.938C455.558 364.602 450.657 344.971 442.812 330.031C435.448 316.004 426.016 307.311 417.344 307.062C417.344 307.063 392.938 306.713 365.688 306.531C353.973 306.453 312.334 306.22 312.125 306.219Z" fill="#303030" fill-opacity="0.00900901" fill-rule="nonzero" opacity="1" stroke="#303030" stroke-linecap="butt" stroke-linejoin="round" stroke-opacity="0.00900901" stroke-width="6.06536"/>
</g>
<g id="Layer-1" vectornator:layerName="Layer 1"/>
<g id="Layer-3" vectornator:layerName="Layer 3">
<g fill="#dddddd" opacity="1" stroke="#dddddd" stroke-linecap="butt" stroke-linejoin="round" stroke-width="6.06536">
<path clip-path="url(#TextBounds)" d="M669.956 151.92C669.956 158.026 668.62 163.178 665.949 167.376C663.278 171.574 658.889 175.136 652.783 178.062C655.836 179.207 658.189 180.352 659.843 181.497L659.652 181.497C670.592 187.857 676.062 197.144 676.062 209.356C676.062 221.441 671.292 231.109 661.751 238.36C652.846 245.357 640.634 248.855 625.114 248.855C622.57 248.855 619.612 248.759 616.241 248.569C612.87 248.378 609.149 248.155 605.078 247.901C601.008 247.646 597.541 247.424 594.679 247.233C591.817 247.042 589.432 246.947 587.523 246.947C584.216 246.947 581.226 247.137 578.555 247.519L569.777 248.664L569.396 248.664C569.269 248.664 569.141 248.696 569.014 248.759C568.887 248.823 568.76 248.855 568.633 248.855L566.724 248.855C559.601 248.728 556.039 245.675 556.039 239.696C556.039 234.098 558.964 231.3 564.816 231.3C565.325 231.3 566.088 231.332 567.106 231.395C568.124 231.459 569.141 231.618 570.159 231.872L571.304 231.872C571.94 231.999 572.417 232.063 572.735 232.063C573.053 232.063 573.339 232.063 573.594 232.063C577.664 232.063 579.7 228.437 579.7 221.186L579.7 147.531C579.7 140.153 577.728 136.4 573.785 136.273C573.53 136.4 573.021 136.464 572.258 136.464C571.495 136.464 570.731 136.527 569.968 136.655L570.159 136.655C567.996 137.036 566.215 137.227 564.816 137.227C558.964 137.227 556.039 134.428 556.039 128.831C556.039 122.852 559.855 119.863 567.488 119.863L570.159 119.863L579.127 121.199C581.799 121.58 585.17 121.771 589.241 121.771C593.693 121.771 600.244 121.389 608.895 120.626L608.704 120.626C611.63 120.372 614.651 120.181 617.768 120.054C620.884 119.926 624.16 119.863 627.595 119.863C641.079 119.863 651.511 122.661 658.889 128.259C666.267 133.856 669.956 141.743 669.956 151.92ZM599.736 159.743C599.736 165.086 600.054 168.585 600.69 170.238C601.835 171.129 604.252 171.574 607.941 171.574L618.245 171.574C637.835 171.574 647.631 165.404 647.631 153.065C647.631 141.87 639.744 136.273 623.969 136.273C611.884 136.273 604.633 136.973 602.216 138.372L602.407 138.372C600.626 139.517 599.736 142.888 599.736 148.485L599.736 159.743ZM599.736 217.37C599.736 224.367 600.562 228.501 602.216 229.773C603.488 230.664 605.778 231.268 609.086 231.586C612.393 231.904 616.909 232.063 622.634 232.063C643.369 232.063 653.737 224.367 653.737 208.974C653.737 194.981 643.814 187.984 623.969 187.984L608.704 187.984C603.743 187.984 600.944 188.875 600.308 190.656C599.926 191.801 599.736 193.9 599.736 196.953L599.736 217.37Z"/>
<path clip-path="url(#TextBounds)" d="M742.88 225.957C743.007 230.409 743.58 232.635 744.597 232.635C744.852 232.635 745.17 232.572 745.551 232.445C745.806 232.445 746.092 232.413 746.41 232.349C746.728 232.286 747.142 232.19 747.65 232.063C747.905 232.063 748.159 232.031 748.414 231.968C748.668 231.904 748.923 231.872 749.177 231.872C749.431 231.872 749.559 231.84 749.559 231.777C749.559 231.713 749.686 231.681 749.94 231.681C750.195 231.554 750.544 231.491 750.99 231.491C751.435 231.491 751.785 231.491 752.039 231.491C758.018 231.491 761.008 234.353 761.008 240.077C761.008 245.802 757.509 248.664 750.513 248.664C749.495 248.664 748.191 248.6 746.601 248.473C745.011 248.346 743.134 248.155 740.972 247.901C738.936 247.646 737.124 247.456 735.534 247.328C733.943 247.201 732.64 247.137 731.622 247.137C730.731 247.137 729.586 247.201 728.187 247.328C726.788 247.456 725.134 247.646 723.226 247.901C721.445 248.155 719.791 248.346 718.265 248.473C716.738 248.6 715.466 248.664 714.448 248.664L713.494 248.664C706.37 248.664 702.809 245.611 702.809 239.505C702.809 234.162 705.925 231.491 712.159 231.491L714.067 231.491C714.576 231.618 715.084 231.681 715.593 231.681C717.12 231.936 718.201 232.127 718.837 232.254C719.473 232.381 719.918 232.445 720.173 232.445C720.682 232.445 721.063 232.127 721.318 231.491C721.572 230.6 721.763 229.01 721.89 226.72C722.017 224.43 722.145 221.377 722.272 217.561C722.272 215.398 722.304 213.268 722.367 211.169C722.431 209.07 722.463 207.002 722.463 204.967L723.035 176.917C723.035 174.882 723.035 172.465 723.035 169.666C723.035 166.867 723.003 163.941 722.94 160.888C722.876 157.835 722.844 154.909 722.844 152.111C722.844 149.312 722.844 146.895 722.844 144.86L722.272 137.609C722.017 137.227 721.699 136.845 721.318 136.464C720.936 136.082 720.554 135.891 720.173 135.891C720.046 135.891 718.519 136.146 715.593 136.655C714.957 136.782 714.417 136.845 713.971 136.845C713.526 136.845 712.985 136.845 712.349 136.845C706.116 136.845 702.999 134.11 702.999 128.64C702.999 122.916 706.434 120.054 713.303 120.054C713.939 120.054 714.671 120.054 715.498 120.054C716.325 120.054 716.929 120.117 717.311 120.244L721.127 120.817C721.381 120.817 721.636 120.849 721.89 120.912C722.145 120.976 722.399 121.008 722.653 121.008C723.289 121.135 723.894 121.199 724.466 121.199C725.039 121.199 725.579 121.199 726.088 121.199C726.343 121.199 726.947 121.167 727.901 121.103C728.855 121.04 729.841 120.88 730.859 120.626C732.003 120.372 733.053 120.181 734.007 120.054C734.961 119.926 735.947 119.863 736.965 119.863C741.671 119.863 744.025 122.471 744.025 127.686C744.025 128.45 744.057 129.022 744.12 129.404C744.184 129.785 744.089 130.231 743.834 130.739C743.071 140.153 742.689 153.192 742.689 169.857L742.88 225.957Z"/>
<path clip-path="url(#TextBounds)" d="M867.134 248.664C862.3 248.664 859.564 246.692 858.928 242.749C852.313 248.219 843.918 250.954 833.741 250.954C818.348 250.954 807.599 246.12 801.493 236.452C800.221 234.416 799.203 232.127 798.44 229.582C797.676 227.038 797.231 224.494 797.104 221.95C796.977 220.423 796.913 218.261 796.913 215.462C796.913 212.663 796.913 209.419 796.913 205.73L796.913 190.847C796.913 175.963 796.15 168.521 794.623 168.521C794.369 168.521 793.987 168.553 793.478 168.616C792.969 168.68 792.397 168.775 791.761 168.903C791.125 169.03 790.203 169.157 788.994 169.284C787.786 169.412 787.309 169.475 787.563 169.475C781.33 169.475 778.213 166.613 778.213 160.888C778.213 155.418 781.839 152.683 789.09 152.683C789.726 152.683 790.521 152.715 791.475 152.779C792.429 152.842 793.415 152.938 794.432 153.065C795.45 153.192 796.436 153.288 797.39 153.351C798.344 153.415 799.139 153.447 799.775 153.447C800.157 153.447 800.857 153.415 801.874 153.351C802.892 153.288 803.91 153.129 804.927 152.874C805.436 152.747 805.945 152.651 806.454 152.588C806.963 152.524 807.599 152.492 808.362 152.492C814.214 152.492 817.14 155.609 817.14 161.842L817.14 165.659L816.949 177.68L816.376 191.037L816.376 202.486C816.376 207.702 816.599 212.091 817.044 215.653C817.489 219.215 818.03 222.077 818.666 224.24C821.083 230.727 826.744 233.971 835.649 233.971C840.101 233.971 844.077 232.953 847.575 230.918C851.073 228.883 853.522 226.148 854.921 222.713C856.702 218.388 857.593 209.801 857.593 196.953L857.593 175.2C857.211 171.129 856.639 169.093 855.875 169.093C855.367 169.093 854.476 169.221 853.204 169.475L850.532 169.475C844.299 169.475 841.182 166.74 841.182 161.27C841.182 155.418 844.554 152.492 851.296 152.492C851.932 152.492 852.695 152.524 853.586 152.588C854.476 152.651 855.43 152.747 856.448 152.874C857.465 153.001 858.42 153.097 859.31 153.16C860.201 153.224 860.837 153.256 861.218 153.256C861.6 153.256 862.141 153.256 862.84 153.256C863.54 153.256 864.335 153.192 865.225 153.065C865.989 152.938 866.784 152.842 867.611 152.779C868.437 152.715 869.169 152.683 869.805 152.683C875.529 152.683 878.392 155.418 878.392 160.888C878.392 162.669 878.265 164.196 878.01 165.468L878.01 165.277C877.756 167.567 877.533 170.366 877.342 173.673C877.151 176.981 877.056 180.797 877.056 185.122L877.056 212.981C877.056 220.105 877.12 223.985 877.247 224.621C877.883 229.837 878.519 232.445 879.155 232.445C879.409 232.445 879.855 232.413 880.491 232.349C881.127 232.286 881.826 232.19 882.59 232.063C883.226 231.936 884.084 231.809 885.166 231.681C886.247 231.554 886.66 231.491 886.406 231.491C892.639 231.491 895.756 234.289 895.756 239.886C895.756 245.738 892.194 248.664 885.07 248.664C884.561 248.664 883.957 248.664 883.258 248.664C882.558 248.664 881.89 248.6 881.254 248.473C881 248.473 880.745 248.441 880.491 248.378C880.236 248.314 880.045 248.282 879.918 248.282C876.865 247.901 875.148 247.71 874.766 247.71C874.639 247.71 874.48 247.742 874.289 247.805C874.098 247.869 873.876 247.901 873.621 247.901C872.858 247.901 872.158 247.964 871.522 248.092L871.713 248.092C870.187 248.473 868.66 248.664 867.134 248.664Z"/>
<path clip-path="url(#TextBounds)" d="M946.164 152.683C950.87 152.683 953.605 154.655 954.369 158.599C961.238 152.492 969.888 149.439 980.32 149.439C987.444 149.439 994.122 151.22 1000.36 154.782L1000.16 154.782C1006.78 158.599 1011.17 163.115 1013.33 168.33C1015.24 172.783 1016.19 178.444 1016.19 185.313L1016.19 219.66L1016.19 228.628C1016.32 230.664 1016.77 231.936 1017.53 232.445C1018.17 232.445 1018.99 232.413 1020.01 232.349C1021.03 232.286 1021.85 232.19 1022.49 232.063C1023.13 231.936 1023.7 231.84 1024.21 231.777C1024.72 231.713 1025.35 231.681 1026.12 231.681C1028.41 231.681 1030.44 232.476 1032.22 234.067C1034 235.657 1034.89 237.533 1034.89 239.696C1034.89 242.24 1033.88 244.371 1031.84 246.088C1029.8 247.805 1027.32 248.664 1024.4 248.664C1023.76 248.664 1022.78 248.632 1021.44 248.569C1020.1 248.505 1018.74 248.346 1017.34 248.092C1015.43 247.837 1013.36 247.615 1011.14 247.424C1008.91 247.233 1006.97 247.137 1005.32 247.137C1004.04 247.137 1002.74 247.169 1001.4 247.233C1000.07 247.297 998.893 247.392 997.875 247.519C995.076 247.901 992.786 248.187 991.005 248.378C989.224 248.569 988.207 248.664 987.952 248.664C981.083 248.664 977.648 245.675 977.648 239.696C977.648 234.353 980.701 231.681 986.807 231.681C987.316 231.809 987.825 231.872 988.334 231.872C988.843 231.872 989.32 231.904 989.765 231.968C990.21 232.031 990.687 232.063 991.196 232.063C991.832 232.19 992.341 232.286 992.723 232.349C993.104 232.413 993.422 232.445 993.677 232.445C994.059 232.572 994.313 232.635 994.44 232.635C995.331 232.635 995.839 230.218 995.967 225.384C995.967 223.858 996.03 222.3 996.157 220.709C996.285 219.119 996.348 217.561 996.348 216.034L996.539 205.158L996.539 191.419C996.539 185.695 996.221 181.433 995.585 178.634C995.203 176.726 994.504 174.977 993.486 173.387C992.468 171.797 991.26 170.493 989.861 169.475L989.861 169.666C986.171 167.122 982.291 165.85 978.221 165.85C969.698 165.85 963.591 168.839 959.902 174.818C957.358 179.143 956.086 186.776 956.086 197.716L956.086 221.759C956.086 226.084 956.245 229.01 956.563 230.536C956.881 232.063 957.422 232.826 958.185 232.826C958.312 232.826 958.694 232.763 959.33 232.635C959.966 232.508 960.666 232.381 961.429 232.254C962.192 231.999 962.924 231.809 963.623 231.681C964.323 231.554 965.182 231.491 966.199 231.491C972.051 231.491 974.977 234.353 974.977 240.077C974.977 245.802 971.542 248.664 964.673 248.664C964.037 248.664 962.796 248.537 960.952 248.282C959.107 248.028 957.04 247.774 954.75 247.519C952.206 247.137 949.407 246.947 946.354 246.947C945.209 246.947 943.842 247.01 942.252 247.137C940.662 247.265 938.785 247.456 936.623 247.71L932.425 248.092C931.28 248.346 930.199 248.505 929.181 248.569C928.163 248.632 927.527 248.664 927.273 248.664C920.149 248.664 916.587 245.738 916.587 239.886C916.587 234.416 919.513 231.681 925.365 231.681C926.001 231.681 926.541 231.713 926.986 231.777C927.432 231.84 927.909 231.936 928.418 232.063C930.071 232.445 931.789 232.635 933.57 232.635C935.096 232.635 935.923 230.028 936.05 224.812C936.05 221.504 936.114 218.165 936.241 214.794C936.368 211.423 936.432 208.084 936.432 204.776L936.432 182.832L936.05 176.535C935.796 173.737 935.541 171.733 935.287 170.525C935.033 169.316 934.587 168.585 933.951 168.33C933.697 168.457 933.124 168.553 932.234 168.616C931.343 168.68 930.644 168.775 930.135 168.903C929.372 169.03 928.672 169.125 928.036 169.189C927.4 169.253 926.764 169.284 926.128 169.284C919.767 169.284 916.587 166.486 916.587 160.888C916.587 155.291 920.276 152.492 927.654 152.492C928.163 152.492 928.577 152.461 928.895 152.397C929.213 152.333 929.626 152.429 930.135 152.683L936.432 153.447C937.068 153.447 937.799 153.415 938.626 153.351C939.453 153.288 940.248 153.192 941.011 153.065C942.029 152.938 942.888 152.842 943.588 152.779C944.287 152.715 945.146 152.683 946.164 152.683Z"/>
<path clip-path="url(#TextBounds)" d="M1108.77 208.783C1109.03 202.168 1112.27 198.861 1118.5 198.861C1124.74 198.861 1127.85 202.486 1127.85 209.737C1127.85 216.607 1127.34 222.427 1126.33 227.197C1125.31 231.968 1123.91 235.816 1122.13 238.742C1117.04 246.374 1108.71 250.191 1097.13 250.191C1091.79 250.191 1087.18 249.3 1083.3 247.519C1079.42 245.738 1076.33 243.194 1074.04 239.886C1070.61 234.671 1068.89 226.593 1068.89 215.653L1068.89 172.337C1068.89 171.447 1068.76 171.002 1068.51 171.002L1062.78 171.002C1059.99 171.002 1057.66 170.143 1055.82 168.426C1053.98 166.708 1053.05 164.578 1053.05 162.033C1053.05 159.743 1053.98 157.676 1055.82 155.832C1057.66 153.987 1059.79 153.065 1062.21 153.065L1069.27 153.065L1069.27 133.602C1069.27 127.241 1072.64 124.061 1079.39 124.061C1085.75 124.061 1088.93 127.241 1088.93 133.602L1088.93 152.874C1088.93 153.001 1088.99 153.065 1089.12 153.065L1108.77 153.065C1115.39 153.065 1118.69 155.991 1118.69 161.842C1118.69 167.949 1115.26 171.002 1108.39 171.002L1088.35 171.002C1088.74 171.256 1088.93 171.701 1088.93 172.337L1088.93 216.798C1088.93 227.738 1092.04 233.208 1098.28 233.208C1105.02 233.208 1108.39 228.946 1108.39 220.423L1108.77 208.783Z"/>
<path clip-path="url(#TextBounds)" d="M579.318 367.734C579.318 360.355 577.219 356.666 573.021 356.666C571.876 356.666 570.795 356.793 569.777 357.048C567.615 357.43 565.77 357.62 564.244 357.62C561.827 357.62 559.76 356.825 558.042 355.235C556.325 353.645 555.466 351.578 555.466 349.034C555.466 343.055 559.155 340.065 566.534 340.065C566.915 340.065 567.424 340.065 568.06 340.065C568.696 340.065 569.269 340.129 569.777 340.256L579.318 341.592C581.099 341.846 582.912 342.037 584.757 342.164C586.601 342.291 588.414 342.355 590.195 342.355C591.849 342.355 593.725 342.26 595.824 342.069C597.923 341.878 600.054 341.655 602.216 341.401L610.421 340.256C610.93 340.129 611.471 340.065 612.043 340.065C612.616 340.065 613.093 340.065 613.474 340.065C620.98 340.065 624.733 343.055 624.733 349.034C624.733 351.578 623.842 353.645 622.061 355.235C620.28 356.825 618.245 357.62 615.955 357.62C614.174 357.62 612.33 357.43 610.421 357.048C609.149 356.793 608.004 356.666 606.987 356.666C602.916 356.666 600.881 360.355 600.881 367.734L600.881 441.198C600.881 448.576 602.916 452.265 606.987 452.265C607.241 452.265 607.527 452.265 607.845 452.265C608.163 452.265 608.64 452.202 609.276 452.075L610.612 452.075L610.421 452.075C612.711 451.693 614.556 451.502 615.955 451.502C621.807 451.502 624.733 454.301 624.733 459.898C624.733 466.004 620.98 469.057 613.474 469.057L611.757 469.057C611.503 468.93 611.121 468.866 610.612 468.866L600.881 467.34C599.227 467.085 597.605 466.895 596.015 466.767C594.425 466.64 592.866 466.577 591.34 466.577C588.795 466.577 586.442 466.672 584.279 466.863C582.117 467.054 580.018 467.276 577.983 467.531L569.587 468.866C569.078 468.866 568.633 468.93 568.251 469.057L566.343 469.057C559.092 469.057 555.466 466.004 555.466 459.898C555.466 454.301 558.392 451.502 564.244 451.502C564.371 451.502 564.562 451.534 564.816 451.598C565.071 451.661 565.389 451.693 565.77 451.693C566.152 451.693 566.661 451.725 567.297 451.788C567.933 451.852 568.633 451.884 569.396 451.884C570.032 452.011 570.636 452.106 571.209 452.17C571.781 452.234 572.385 452.265 573.021 452.265C577.219 452.265 579.318 448.576 579.318 441.198L579.318 367.734Z"/>
<path clip-path="url(#TextBounds)" d="M675.522 372.886C680.229 372.886 682.964 374.857 683.727 378.801C690.596 372.695 699.247 369.642 709.678 369.642C716.802 369.642 723.48 371.423 729.714 374.985L729.523 374.985C736.138 378.801 740.527 383.317 742.689 388.533C744.597 392.985 745.551 398.646 745.551 405.515L745.551 439.862L745.551 448.831C745.679 450.866 746.124 452.138 746.887 452.647C747.523 452.647 748.35 452.615 749.368 452.552C750.385 452.488 751.212 452.393 751.848 452.265C752.484 452.138 753.057 452.043 753.566 451.979C754.075 451.916 754.711 451.884 755.474 451.884C757.764 451.884 759.799 452.679 761.58 454.269C763.361 455.859 764.251 457.735 764.251 459.898C764.251 462.442 763.234 464.573 761.198 466.29C759.163 468.008 756.682 468.866 753.757 468.866C753.12 468.866 752.135 468.835 750.799 468.771C749.463 468.707 748.096 468.548 746.696 468.294C744.788 468.04 742.721 467.817 740.495 467.626C738.269 467.435 736.329 467.34 734.675 467.34C733.403 467.34 732.099 467.372 730.763 467.435C729.427 467.499 728.251 467.594 727.233 467.722C724.434 468.103 722.145 468.389 720.364 468.58C718.583 468.771 717.565 468.866 717.311 468.866C710.441 468.866 707.006 465.877 707.006 459.898C707.006 454.555 710.06 451.884 716.166 451.884C716.675 452.011 717.183 452.075 717.692 452.075C718.201 452.075 718.678 452.106 719.123 452.17C719.569 452.234 720.046 452.265 720.554 452.265C721.191 452.393 721.699 452.488 722.081 452.552C722.463 452.615 722.781 452.647 723.035 452.647C723.417 452.774 723.671 452.838 723.798 452.838C724.689 452.838 725.198 450.421 725.325 445.587C725.325 444.06 725.388 442.502 725.516 440.912C725.643 439.322 725.707 437.763 725.707 436.237L725.897 425.36L725.897 411.621C725.897 405.897 725.579 401.635 724.943 398.837C724.562 396.929 723.862 395.179 722.844 393.589C721.827 391.999 720.618 390.695 719.219 389.678L719.219 389.868C715.53 387.324 711.65 386.052 707.579 386.052C699.056 386.052 692.95 389.041 689.261 395.02C686.716 399.346 685.444 406.978 685.444 417.918L685.444 441.961C685.444 446.286 685.603 449.212 685.921 450.739C686.239 452.265 686.78 453.029 687.543 453.029C687.67 453.029 688.052 452.965 688.688 452.838C689.324 452.711 690.024 452.583 690.787 452.456C691.55 452.202 692.282 452.011 692.981 451.884C693.681 451.757 694.54 451.693 695.557 451.693C701.409 451.693 704.335 454.555 704.335 460.28C704.335 466.004 700.9 468.866 694.031 468.866C693.395 468.866 692.155 468.739 690.31 468.485C688.465 468.23 686.398 467.976 684.108 467.722C681.564 467.34 678.766 467.149 675.713 467.149C674.568 467.149 673.2 467.213 671.61 467.34C670.02 467.467 668.143 467.658 665.981 467.912L661.783 468.294C660.638 468.548 659.557 468.707 658.539 468.771C657.521 468.835 656.885 468.866 656.631 468.866C649.507 468.866 645.945 465.941 645.945 460.089C645.945 454.619 648.871 451.884 654.723 451.884C655.359 451.884 655.899 451.916 656.345 451.979C656.79 452.043 657.267 452.138 657.776 452.265C659.43 452.647 661.147 452.838 662.928 452.838C664.454 452.838 665.281 450.23 665.408 445.014C665.408 441.707 665.472 438.368 665.599 434.996C665.726 431.625 665.79 428.286 665.79 424.979L665.79 403.035L665.408 396.738C665.154 393.939 664.9 391.936 664.645 390.727C664.391 389.519 663.946 388.787 663.309 388.533C663.055 388.66 662.483 388.755 661.592 388.819C660.702 388.882 660.002 388.978 659.493 389.105C658.73 389.232 658.03 389.328 657.394 389.391C656.758 389.455 656.122 389.487 655.486 389.487C649.125 389.487 645.945 386.688 645.945 381.091C645.945 375.493 649.634 372.695 657.013 372.695C657.521 372.695 657.935 372.663 658.253 372.599C658.571 372.536 658.984 372.631 659.493 372.886L665.79 373.649C666.426 373.649 667.158 373.617 667.984 373.554C668.811 373.49 669.606 373.394 670.37 373.267C671.387 373.14 672.246 373.045 672.946 372.981C673.645 372.917 674.504 372.886 675.522 372.886Z"/>
<path clip-path="url(#TextBounds)" d="M829.543 369.642C836.539 369.642 842.455 371.041 847.289 373.84C848.434 370.278 851.232 368.497 855.685 368.497C861.663 368.497 864.653 371.296 864.653 376.893C864.653 377.147 864.621 377.402 864.558 377.656C864.494 377.91 864.462 378.356 864.462 378.992C864.462 379.501 864.43 380.105 864.367 380.805C864.303 381.504 864.271 382.172 864.271 382.808C864.017 383.953 863.826 385.098 863.699 386.243C863.572 387.388 863.508 388.469 863.508 389.487C863.508 391.14 863.699 393.112 864.08 395.402C864.335 396.801 864.526 398.042 864.653 399.123C864.78 400.204 864.844 401.19 864.844 402.081C864.844 408.441 861.854 411.621 855.875 411.621C850.024 411.621 846.971 408.886 846.716 403.416L846.525 397.31C846.398 394.384 844.649 391.872 841.278 389.773C837.907 387.674 833.868 386.624 829.161 386.624C824.581 386.624 820.701 387.769 817.521 390.059C814.341 392.349 812.751 395.275 812.751 398.837C812.751 401.89 813.959 404.339 816.376 406.183C818.793 408.028 821.974 409.332 825.917 410.095C827.698 410.349 829.447 410.604 831.165 410.858C832.882 411.113 834.631 411.367 836.412 411.621C858.801 414.674 869.996 423.961 869.996 439.481C869.996 448.767 866.243 456.527 858.738 462.76C851.359 468.358 842.073 471.156 830.878 471.156C822.482 471.156 814.85 469.248 807.98 465.432C807.344 470.266 804.291 472.683 798.821 472.683C792.333 472.683 789.09 469.375 789.09 462.76C789.344 460.852 789.567 459.326 789.757 458.181C789.948 457.036 790.107 456.018 790.234 455.128C790.362 454.237 790.457 453.315 790.521 452.361C790.584 451.407 790.616 450.039 790.616 448.258C790.616 446.859 790.521 445.364 790.33 443.774C790.139 442.184 789.916 440.689 789.662 439.29C789.28 437.636 789.09 435.919 789.09 434.138C789.09 428.286 792.079 425.36 798.058 425.36C802.129 425.36 804.609 426.442 805.5 428.604C806.39 430.512 806.899 434.011 807.026 439.099C807.154 443.551 809.539 447.177 814.182 449.976C818.825 452.774 824.899 454.174 832.405 454.174C837.366 454.174 841.469 452.933 844.713 450.453C847.956 447.972 849.578 444.76 849.578 440.816C849.578 434.074 843.981 430.131 832.787 428.986C826.172 428.222 820.32 427.237 815.231 426.028C810.143 424.82 805.881 423.166 802.447 421.067C799.012 418.968 796.404 416.265 794.623 412.957C792.842 409.65 791.952 405.515 791.952 400.554C791.952 395.974 792.874 391.776 794.719 387.96C796.563 384.144 799.139 380.9 802.447 378.229C805.754 375.557 809.698 373.458 814.277 371.932C818.857 370.405 823.945 369.642 829.543 369.642Z"/>
<path clip-path="url(#TextBounds)" d="M949.217 428.986C949.471 422.371 952.715 419.063 958.948 419.063C965.182 419.063 968.298 422.689 968.298 429.94C968.298 436.809 967.789 442.629 966.772 447.4C965.754 452.17 964.355 456.018 962.574 458.944C957.485 466.577 949.153 470.393 937.577 470.393C932.234 470.393 927.623 469.502 923.743 467.722C919.863 465.941 916.778 463.396 914.488 460.089C911.053 454.873 909.336 446.795 909.336 435.855L909.336 392.54C909.336 391.649 909.209 391.204 908.954 391.204L903.23 391.204C900.431 391.204 898.11 390.345 896.265 388.628C894.42 386.911 893.498 384.78 893.498 382.236C893.498 379.946 894.42 377.879 896.265 376.034C898.11 374.19 900.24 373.267 902.657 373.267L909.718 373.267L909.718 353.804C909.718 347.443 913.089 344.263 919.831 344.263C926.191 344.263 929.372 347.443 929.372 353.804L929.372 373.076C929.372 373.204 929.435 373.267 929.562 373.267L949.217 373.267C955.832 373.267 959.139 376.193 959.139 382.045C959.139 388.151 955.704 391.204 948.835 391.204L928.799 391.204C929.181 391.458 929.372 391.904 929.372 392.54L929.372 437C929.372 447.94 932.488 453.41 938.722 453.41C945.464 453.41 948.835 449.149 948.835 440.626L949.217 428.986Z"/>
<path clip-path="url(#TextBounds)" d="M1018.71 372.886C1022.9 372.886 1025.38 374.539 1026.15 377.847C1032.38 372.377 1039.82 369.642 1048.47 369.642C1053.18 369.642 1057.44 370.31 1061.26 371.645C1065.07 372.981 1068.38 374.889 1071.18 377.37C1073.98 379.85 1076.14 382.808 1077.67 386.243C1079.19 389.678 1079.96 393.494 1079.96 397.692C1079.96 403.798 1078.37 408.727 1075.19 412.48C1072.01 416.233 1067.75 418.109 1062.4 418.109C1058.71 418.109 1055.63 417.028 1053.15 414.865C1050.67 412.703 1049.43 410.031 1049.43 406.851C1049.43 404.307 1050.48 402.017 1052.58 399.982C1054.67 397.946 1057.06 396.929 1059.73 396.929C1059.99 396.929 1059.95 396.865 1059.64 396.738C1059.32 396.611 1059.48 396.674 1060.11 396.929L1060.11 395.974C1060.11 393.176 1058.87 390.822 1056.39 388.914C1053.91 387.006 1050.83 386.052 1047.14 386.052C1039.12 386.052 1033.78 389.741 1031.11 397.119C1029.33 402.208 1028.44 409.713 1028.44 419.636L1028.44 431.657C1028.44 435.346 1028.44 438.272 1028.44 440.435C1028.44 442.597 1028.5 443.933 1028.63 444.442C1029.26 450.039 1030.09 452.838 1031.11 452.838C1031.87 452.838 1032.57 452.806 1033.21 452.742C1033.84 452.679 1034.48 452.583 1035.12 452.456C1036.77 451.947 1038.23 451.693 1039.5 451.693C1045.36 451.693 1048.28 454.428 1048.28 459.898C1048.28 465.877 1044.78 468.866 1037.79 468.866L1037.21 468.866C1036.2 468.866 1034.96 468.803 1033.49 468.676C1032.03 468.548 1030.35 468.358 1028.44 468.103C1024.75 467.722 1022.14 467.531 1020.61 467.531C1018.2 467.531 1016.1 467.563 1014.32 467.626C1012.54 467.69 1010.95 467.785 1009.55 467.912L999.242 468.866C992.246 468.866 988.748 465.877 988.748 459.898C988.748 454.555 992.055 451.884 998.67 451.884C999.306 451.884 999.847 451.852 1000.29 451.788C1000.74 451.725 1001.28 451.82 1001.91 452.075L1004.2 452.647L1005.73 452.647C1005.86 452.774 1006.05 452.838 1006.3 452.838L1006.49 452.838C1007.64 452.838 1008.27 450.93 1008.4 447.113C1008.4 445.587 1008.47 444.06 1008.59 442.534C1008.72 441.007 1008.78 439.481 1008.78 437.954L1008.21 396.929C1007.96 392.222 1007.32 389.55 1006.3 388.914C1006.05 388.914 1005.41 388.978 1004.39 389.105C1003.38 389.232 1002.68 389.296 1002.3 389.296L1002.68 389.296C1001.15 389.678 999.561 389.868 997.907 389.868C991.928 389.868 988.938 387.07 988.938 381.472C988.938 375.621 992.5 372.695 999.624 372.695C999.879 372.822 1000.64 372.917 1001.91 372.981C1003.19 373.045 1004.33 373.14 1005.35 373.267C1006.37 373.394 1007.35 373.49 1008.31 373.554C1009.26 373.617 1009.99 373.649 1010.5 373.649C1010.76 373.649 1011.1 373.649 1011.55 373.649C1012 373.649 1012.54 373.585 1013.17 373.458C1013.43 373.458 1013.65 373.426 1013.84 373.363C1014.03 373.299 1014.32 373.267 1014.7 373.267C1015.97 373.013 1017.31 372.886 1018.71 372.886Z"/>
<path clip-path="url(#TextBounds)" d="M1190.09 468.866C1185.26 468.866 1182.52 466.895 1181.89 462.951C1175.27 468.421 1166.87 471.156 1156.7 471.156C1141.31 471.156 1130.56 466.322 1124.45 456.654C1123.18 454.619 1122.16 452.329 1121.4 449.785C1120.63 447.241 1120.19 444.696 1120.06 442.152C1119.93 440.626 1119.87 438.463 1119.87 435.664C1119.87 432.866 1119.87 429.622 1119.87 425.933L1119.87 411.049C1119.87 396.165 1119.11 388.723 1117.58 388.723C1117.33 388.723 1116.94 388.755 1116.44 388.819C1115.93 388.882 1115.35 388.978 1114.72 389.105C1114.08 389.232 1113.16 389.359 1111.95 389.487C1110.74 389.614 1110.27 389.678 1110.52 389.678C1104.29 389.678 1101.17 386.815 1101.17 381.091C1101.17 375.621 1104.8 372.886 1112.05 372.886C1112.68 372.886 1113.48 372.917 1114.43 372.981C1115.39 373.045 1116.37 373.14 1117.39 373.267C1118.41 373.394 1119.39 373.49 1120.35 373.554C1121.3 373.617 1122.1 373.649 1122.73 373.649C1123.11 373.649 1123.81 373.617 1124.83 373.554C1125.85 373.49 1126.87 373.331 1127.88 373.076C1128.39 372.949 1128.9 372.854 1129.41 372.79C1129.92 372.727 1130.56 372.695 1131.32 372.695C1137.17 372.695 1140.1 375.812 1140.1 382.045L1140.1 385.861L1139.91 397.883L1139.33 411.24L1139.33 422.689C1139.33 427.904 1139.56 432.293 1140 435.855C1140.45 439.417 1140.99 442.279 1141.62 444.442C1144.04 450.93 1149.7 454.174 1158.61 454.174C1163.06 454.174 1167.03 453.156 1170.53 451.12C1174.03 449.085 1176.48 446.35 1177.88 442.915C1179.66 438.59 1180.55 430.003 1180.55 417.155L1180.55 395.402C1180.17 391.331 1179.6 389.296 1178.83 389.296C1178.32 389.296 1177.43 389.423 1176.16 389.678L1173.49 389.678C1167.26 389.678 1164.14 386.942 1164.14 381.472C1164.14 375.621 1167.51 372.695 1174.25 372.695C1174.89 372.695 1175.65 372.727 1176.54 372.79C1177.43 372.854 1178.39 372.949 1179.41 373.076C1180.42 373.204 1181.38 373.299 1182.27 373.363C1183.16 373.426 1183.79 373.458 1184.18 373.458C1184.56 373.458 1185.1 373.458 1185.8 373.458C1186.5 373.458 1187.29 373.394 1188.18 373.267C1188.95 373.14 1189.74 373.045 1190.57 372.981C1191.39 372.917 1192.13 372.886 1192.76 372.886C1198.49 372.886 1201.35 375.621 1201.35 381.091C1201.35 382.872 1201.22 384.398 1200.97 385.67L1200.97 385.48C1200.71 387.769 1200.49 390.568 1200.3 393.875C1200.11 397.183 1200.01 400.999 1200.01 405.324L1200.01 433.184C1200.01 440.308 1200.08 444.187 1200.2 444.824C1200.84 450.039 1201.48 452.647 1202.11 452.647C1202.37 452.647 1202.81 452.615 1203.45 452.552C1204.08 452.488 1204.78 452.393 1205.55 452.265C1206.18 452.138 1207.04 452.011 1208.12 451.884C1209.2 451.757 1209.62 451.693 1209.36 451.693C1215.6 451.693 1218.71 454.492 1218.71 460.089C1218.71 465.941 1215.15 468.866 1208.03 468.866C1207.52 468.866 1206.91 468.866 1206.22 468.866C1205.52 468.866 1204.85 468.803 1204.21 468.676C1203.96 468.676 1203.7 468.644 1203.45 468.58C1203.19 468.517 1203 468.485 1202.88 468.485C1199.82 468.103 1198.11 467.912 1197.72 467.912C1197.6 467.912 1197.44 467.944 1197.25 468.008C1197.06 468.071 1196.83 468.103 1196.58 468.103C1195.82 468.103 1195.12 468.167 1194.48 468.294L1194.67 468.294C1193.14 468.676 1191.62 468.866 1190.09 468.866Z"/>
<path clip-path="url(#TextBounds)" d="M1269.88 372.886C1274.21 372.886 1276.75 374.794 1277.52 378.61C1280.95 375.303 1284.48 372.981 1288.11 371.645C1291.73 370.31 1296.15 369.642 1301.37 369.642C1307.35 369.642 1312.44 370.532 1316.63 372.313C1320.83 374.094 1324.46 377.02 1327.51 381.091C1331.2 377.529 1335.37 374.73 1340.01 372.695C1344.65 370.659 1350.03 369.642 1356.13 369.642C1363.38 369.642 1370 371.168 1375.98 374.221C1382.47 377.91 1387.11 382.935 1389.91 389.296C1390.8 391.458 1391.43 394.194 1391.82 397.501C1392.2 400.808 1392.39 404.625 1392.39 408.95L1392.39 426.505L1392.2 440.053C1392.2 442.47 1392.2 444.378 1392.2 445.778C1392.2 447.177 1392.26 448.195 1392.39 448.831C1392.77 451.629 1393.28 453.029 1393.92 453.029C1394.55 453.029 1395.51 452.901 1396.78 452.647C1397.67 452.647 1398.78 452.583 1400.12 452.456C1401.45 452.329 1401.99 452.202 1401.74 452.075C1407.84 452.329 1410.9 454.937 1410.9 459.898C1410.9 465.877 1407.53 468.866 1400.78 468.866C1399.77 468.866 1398.53 468.803 1397.06 468.676C1395.6 468.548 1393.92 468.358 1392.01 468.103C1388.32 467.722 1385.65 467.531 1383.99 467.531C1383.1 467.531 1381.89 467.563 1380.37 467.626C1378.84 467.69 1377.19 467.849 1375.41 468.103C1373.62 468.358 1371.91 468.548 1370.25 468.676C1368.6 468.803 1367.26 468.866 1366.25 468.866C1359.12 468.866 1355.56 465.877 1355.56 459.898C1355.56 454.682 1358.49 452.075 1364.34 452.075C1364.59 452.075 1364.82 452.106 1365.01 452.17C1365.2 452.234 1365.48 452.265 1365.87 452.265C1366.12 452.265 1366.53 452.297 1367.11 452.361C1367.68 452.424 1368.22 452.456 1368.73 452.456C1369.24 452.583 1369.94 452.647 1370.83 452.647C1371.34 452.647 1371.65 452.265 1371.78 451.502C1372.29 449.467 1372.61 444.569 1372.73 436.809C1372.73 435.028 1372.77 433.184 1372.83 431.276C1372.89 429.367 1372.93 427.523 1372.93 425.742L1372.93 413.911C1372.93 406.024 1372.38 400.331 1371.3 396.833C1370.22 393.335 1368.22 390.695 1365.29 388.914C1362.37 387.006 1358.93 386.052 1354.99 386.052C1347.86 386.052 1342.78 388.596 1339.72 393.685C1337.31 398.01 1336.1 405.77 1336.1 416.964L1336.1 429.749C1336.1 435.092 1336.16 439.512 1336.29 443.011C1336.42 446.509 1336.61 449.021 1336.86 450.548C1337.12 451.947 1337.56 452.647 1338.2 452.647C1338.32 452.647 1338.64 452.647 1339.15 452.647C1339.66 452.647 1340.23 452.583 1340.87 452.456C1341.5 452.329 1342.3 452.202 1343.25 452.075C1344.21 451.947 1344.62 451.884 1344.49 451.884C1347.04 451.884 1349.17 452.679 1350.89 454.269C1352.6 455.859 1353.46 457.863 1353.46 460.28C1353.46 466.004 1349.65 468.866 1342.01 468.866C1340.87 468.866 1339.56 468.803 1338.1 468.676C1336.64 468.548 1335.02 468.358 1333.24 468.103C1331.45 467.849 1329.96 467.658 1328.75 467.531C1327.54 467.403 1326.56 467.34 1325.79 467.34C1324.78 467.34 1323.54 467.403 1322.07 467.531C1320.61 467.658 1319.18 467.849 1317.78 468.103C1316.38 468.358 1314.98 468.548 1313.58 468.676C1312.18 468.803 1310.85 468.866 1309.57 468.866C1302.58 468.866 1299.08 465.941 1299.08 460.089C1299.08 454.746 1301.94 452.075 1307.67 452.075C1309.19 452.075 1310.46 452.202 1311.48 452.456C1312.25 452.583 1312.88 452.679 1313.39 452.742C1313.9 452.806 1314.28 452.838 1314.54 452.838C1315.3 452.838 1315.74 450.612 1315.87 446.159C1315.87 444.76 1315.9 443.361 1315.97 441.961C1316.03 440.562 1316.06 439.163 1316.06 437.763C1316.19 436.364 1316.25 434.996 1316.25 433.661C1316.25 432.325 1316.25 431.021 1316.25 429.749C1316.38 428.731 1316.44 427.968 1316.44 427.459C1316.44 426.95 1316.44 426.632 1316.44 426.505L1316.44 411.621C1316.44 406.787 1316.16 402.748 1315.58 399.505C1315.01 396.261 1314.09 393.621 1312.82 391.586C1311.55 389.55 1309.89 388.119 1307.86 387.292C1305.82 386.465 1303.28 386.052 1300.22 386.052C1293.23 386.052 1288.01 388.596 1284.58 393.685C1281.4 397.755 1279.81 405.452 1279.81 416.773L1279.81 440.816C1279.81 445.65 1279.87 448.385 1280 449.021C1280.38 451.566 1280.7 452.838 1280.95 452.838C1280.82 452.838 1281.84 452.647 1284 452.265C1284.51 452.265 1284.96 452.202 1285.34 452.075L1287.06 452.075C1293.8 452.075 1297.17 454.873 1297.17 460.47C1297.17 466.068 1293.42 468.866 1285.91 468.866C1283.75 468.866 1281.08 468.676 1277.9 468.294C1275.86 468.04 1274.02 467.849 1272.36 467.722C1270.71 467.594 1269.18 467.531 1267.79 467.531C1266.39 467.531 1263.91 467.722 1260.34 468.103C1257.67 468.358 1255.54 468.548 1253.95 468.676C1252.36 468.803 1251.25 468.866 1250.61 468.866C1243.74 468.866 1240.31 465.941 1240.31 460.089C1240.31 454.746 1243.62 452.075 1250.23 452.075L1251.57 452.075C1251.95 452.202 1252.33 452.265 1252.71 452.265L1258.05 453.219C1259.07 452.583 1259.64 450.484 1259.77 446.923C1259.77 445.142 1259.83 443.424 1259.96 441.77C1260.09 440.117 1260.15 438.399 1260.15 436.618L1260.15 408.95C1260.15 403.989 1260.06 399.982 1259.87 396.929C1259.68 393.875 1259.45 391.713 1259.2 390.441C1259.07 389.169 1258.63 388.533 1257.86 388.533C1257.86 388.533 1257.23 388.723 1255.95 389.105L1252.9 389.487C1252.65 389.487 1252.49 389.519 1252.42 389.582C1252.36 389.646 1252.27 389.678 1252.14 389.678L1252.71 389.678C1252.33 389.805 1251.88 389.868 1251.38 389.868C1250.87 389.868 1250.42 389.868 1250.04 389.868C1243.55 389.868 1240.31 387.07 1240.31 381.472C1240.31 375.748 1243.74 372.886 1250.61 372.886C1251.38 372.886 1252.2 372.917 1253.09 372.981C1253.98 373.045 1254.94 373.14 1255.95 373.267C1256.97 373.394 1258.05 373.49 1259.2 373.554C1260.34 373.617 1261.3 373.649 1262.06 373.649C1262.44 373.649 1262.89 373.585 1263.4 373.458L1265.3 373.458L1269.88 372.886Z"/>
<path clip-path="url(#TextBounds)" d="M1525.8 412.385C1525.8 415.311 1525.74 417.6 1525.61 419.254C1525.48 420.908 1525.1 422.18 1524.47 423.07C1523.83 423.961 1522.91 424.502 1521.7 424.692C1520.49 424.883 1518.8 424.979 1516.64 424.979L1459.21 424.979C1458.7 424.979 1458.44 425.042 1458.44 425.169C1458.44 433.693 1460.92 440.626 1465.88 445.968C1470.59 451.438 1476.51 454.174 1483.63 454.174C1488.34 454.174 1492.6 452.901 1496.42 450.357C1500.23 447.813 1502.71 444.569 1503.86 440.626L1505.57 435.474C1506.34 433.565 1507.45 432.039 1508.91 430.894C1510.38 429.749 1512.19 429.177 1514.35 429.177C1520.97 429.177 1524.27 432.357 1524.27 438.717C1524.27 447.368 1519.82 455 1510.92 461.615C1502.39 467.976 1492.79 471.156 1482.1 471.156C1468.37 471.156 1457.49 466.64 1449.47 457.608C1441.59 448.576 1437.64 436.618 1437.64 421.735C1437.64 406.724 1441.84 394.257 1450.24 384.335C1458.76 374.539 1469.89 369.642 1483.63 369.642C1489.99 369.642 1495.65 370.659 1500.61 372.695C1505.57 374.73 1510.03 377.72 1513.97 381.663C1521.86 389.932 1525.8 400.172 1525.8 412.385ZM1505 407.805C1505 402.081 1502.9 397.119 1498.71 392.921C1494.25 388.723 1489.29 386.624 1483.82 386.624C1478.22 386.624 1472.75 388.914 1467.41 393.494C1462.58 397.946 1460.16 402.717 1460.16 407.805L1505 407.805Z"/>
<path clip-path="url(#TextBounds)" d="M1581.36 372.886C1586.07 372.886 1588.8 374.857 1589.57 378.801C1596.44 372.695 1605.09 369.642 1615.52 369.642C1622.64 369.642 1629.32 371.423 1635.55 374.985L1635.36 374.985C1641.98 378.801 1646.37 383.317 1648.53 388.533C1650.44 392.985 1651.39 398.646 1651.39 405.515L1651.39 439.862L1651.39 448.831C1651.52 450.866 1651.96 452.138 1652.73 452.647C1653.36 452.647 1654.19 452.615 1655.21 452.552C1656.22 452.488 1657.05 452.393 1657.69 452.265C1658.32 452.138 1658.9 452.043 1659.4 451.979C1659.91 451.916 1660.55 451.884 1661.31 451.884C1663.6 451.884 1665.64 452.679 1667.42 454.269C1669.2 455.859 1670.09 457.735 1670.09 459.898C1670.09 462.442 1669.07 464.573 1667.04 466.29C1665 468.008 1662.52 468.866 1659.6 468.866C1658.96 468.866 1657.97 468.835 1656.64 468.771C1655.3 468.707 1653.93 468.548 1652.54 468.294C1650.63 468.04 1648.56 467.817 1646.33 467.626C1644.11 467.435 1642.17 467.34 1640.51 467.34C1639.24 467.34 1637.94 467.372 1636.6 467.435C1635.27 467.499 1634.09 467.594 1633.07 467.722C1630.27 468.103 1627.98 468.389 1626.2 468.58C1624.42 468.771 1623.4 468.866 1623.15 468.866C1616.28 468.866 1612.85 465.877 1612.85 459.898C1612.85 454.555 1615.9 451.884 1622 451.884C1622.51 452.011 1623.02 452.075 1623.53 452.075C1624.04 452.075 1624.52 452.106 1624.96 452.17C1625.41 452.234 1625.88 452.265 1626.39 452.265C1627.03 452.393 1627.54 452.488 1627.92 452.552C1628.3 452.615 1628.62 452.647 1628.87 452.647C1629.26 452.774 1629.51 452.838 1629.64 452.838C1630.53 452.838 1631.04 450.421 1631.16 445.587C1631.16 444.06 1631.23 442.502 1631.35 440.912C1631.48 439.322 1631.55 437.763 1631.55 436.237L1631.74 425.36L1631.74 411.621C1631.74 405.897 1631.42 401.635 1630.78 398.837C1630.4 396.929 1629.7 395.179 1628.68 393.589C1627.67 391.999 1626.46 390.695 1625.06 389.678L1625.06 389.868C1621.37 387.324 1617.49 386.052 1613.42 386.052C1604.89 386.052 1598.79 389.041 1595.1 395.02C1592.56 399.346 1591.28 406.978 1591.28 417.918L1591.28 441.961C1591.28 446.286 1591.44 449.212 1591.76 450.739C1592.08 452.265 1592.62 453.029 1593.38 453.029C1593.51 453.029 1593.89 452.965 1594.53 452.838C1595.16 452.711 1595.86 452.583 1596.63 452.456C1597.39 452.202 1598.12 452.011 1598.82 451.884C1599.52 451.757 1600.38 451.693 1601.4 451.693C1607.25 451.693 1610.17 454.555 1610.17 460.28C1610.17 466.004 1606.74 468.866 1599.87 468.866C1599.23 468.866 1597.99 468.739 1596.15 468.485C1594.3 468.23 1592.24 467.976 1589.95 467.722C1587.4 467.34 1584.6 467.149 1581.55 467.149C1580.41 467.149 1579.04 467.213 1577.45 467.34C1575.86 467.467 1573.98 467.658 1571.82 467.912L1567.62 468.294C1566.48 468.548 1565.4 468.707 1564.38 468.771C1563.36 468.835 1562.72 468.866 1562.47 468.866C1555.35 468.866 1551.78 465.941 1551.78 460.089C1551.78 454.619 1554.71 451.884 1560.56 451.884C1561.2 451.884 1561.74 451.916 1562.18 451.979C1562.63 452.043 1563.11 452.138 1563.61 452.265C1565.27 452.647 1566.99 452.838 1568.77 452.838C1570.29 452.838 1571.12 450.23 1571.25 445.014C1571.25 441.707 1571.31 438.368 1571.44 434.996C1571.57 431.625 1571.63 428.286 1571.63 424.979L1571.63 403.035L1571.25 396.738C1570.99 393.939 1570.74 391.936 1570.48 390.727C1570.23 389.519 1569.78 388.787 1569.15 388.533C1568.89 388.66 1568.32 388.755 1567.43 388.819C1566.54 388.882 1565.84 388.978 1565.33 389.105C1564.57 389.232 1563.87 389.328 1563.23 389.391C1562.6 389.455 1561.96 389.487 1561.33 389.487C1554.96 389.487 1551.78 386.688 1551.78 381.091C1551.78 375.493 1555.47 372.695 1562.85 372.695C1563.36 372.695 1563.77 372.663 1564.09 372.599C1564.41 372.536 1564.82 372.631 1565.33 372.886L1571.63 373.649C1572.27 373.649 1573 373.617 1573.82 373.554C1574.65 373.49 1575.45 373.394 1576.21 373.267C1577.23 373.14 1578.09 373.045 1578.78 372.981C1579.48 372.917 1580.34 372.886 1581.36 372.886Z"/>
<path clip-path="url(#TextBounds)" d="M1743.97 428.986C1744.22 422.371 1747.47 419.063 1753.7 419.063C1759.93 419.063 1763.05 422.689 1763.05 429.94C1763.05 436.809 1762.54 442.629 1761.52 447.4C1760.51 452.17 1759.11 456.018 1757.33 458.944C1752.24 466.577 1743.9 470.393 1732.33 470.393C1726.99 470.393 1722.37 469.502 1718.49 467.722C1714.61 465.941 1711.53 463.396 1709.24 460.089C1705.81 454.873 1704.09 446.795 1704.09 435.855L1704.09 392.54C1704.09 391.649 1703.96 391.204 1703.71 391.204L1697.98 391.204C1695.18 391.204 1692.86 390.345 1691.02 388.628C1689.17 386.911 1688.25 384.78 1688.25 382.236C1688.25 379.946 1689.17 377.879 1691.02 376.034C1692.86 374.19 1694.99 373.267 1697.41 373.267L1704.47 373.267L1704.47 353.804C1704.47 347.443 1707.84 344.263 1714.58 344.263C1720.94 344.263 1724.12 347.443 1724.12 353.804L1724.12 373.076C1724.12 373.204 1724.19 373.267 1724.31 373.267L1743.97 373.267C1750.58 373.267 1753.89 376.193 1753.89 382.045C1753.89 388.151 1750.46 391.204 1743.59 391.204L1723.55 391.204C1723.93 391.458 1724.12 391.904 1724.12 392.54L1724.12 437C1724.12 447.94 1727.24 453.41 1733.47 453.41C1740.22 453.41 1743.59 449.149 1743.59 440.626L1743.97 428.986Z"/>
<path clip-path="url(#TextBounds)" d="M1828.91 369.642C1835.91 369.642 1841.83 371.041 1846.66 373.84C1847.8 370.278 1850.6 368.497 1855.06 368.497C1861.03 368.497 1864.02 371.296 1864.02 376.893C1864.02 377.147 1863.99 377.402 1863.93 377.656C1863.87 377.91 1863.83 378.356 1863.83 378.992C1863.83 379.501 1863.8 380.105 1863.74 380.805C1863.67 381.504 1863.64 382.172 1863.64 382.808C1863.39 383.953 1863.2 385.098 1863.07 386.243C1862.94 387.388 1862.88 388.469 1862.88 389.487C1862.88 391.14 1863.07 393.112 1863.45 395.402C1863.71 396.801 1863.9 398.042 1864.02 399.123C1864.15 400.204 1864.21 401.19 1864.21 402.081C1864.21 408.441 1861.23 411.621 1855.25 411.621C1849.39 411.621 1846.34 408.886 1846.09 403.416L1845.9 397.31C1845.77 394.384 1844.02 391.872 1840.65 389.773C1837.28 387.674 1833.24 386.624 1828.53 386.624C1823.95 386.624 1820.07 387.769 1816.89 390.059C1813.71 392.349 1812.12 395.275 1812.12 398.837C1812.12 401.89 1813.33 404.339 1815.75 406.183C1818.16 408.028 1821.34 409.332 1825.29 410.095C1827.07 410.349 1828.82 410.604 1830.54 410.858C1832.25 411.113 1834 411.367 1835.78 411.621C1858.17 414.674 1869.37 423.961 1869.37 439.481C1869.37 448.767 1865.61 456.527 1858.11 462.76C1850.73 468.358 1841.44 471.156 1830.25 471.156C1821.85 471.156 1814.22 469.248 1807.35 465.432C1806.72 470.266 1803.66 472.683 1798.19 472.683C1791.7 472.683 1788.46 469.375 1788.46 462.76C1788.72 460.852 1788.94 459.326 1789.13 458.181C1789.32 457.036 1789.48 456.018 1789.61 455.128C1789.73 454.237 1789.83 453.315 1789.89 452.361C1789.96 451.407 1789.99 450.039 1789.99 448.258C1789.99 446.859 1789.89 445.364 1789.7 443.774C1789.51 442.184 1789.29 440.689 1789.03 439.29C1788.65 437.636 1788.46 435.919 1788.46 434.138C1788.46 428.286 1791.45 425.36 1797.43 425.36C1801.5 425.36 1803.98 426.442 1804.87 428.604C1805.76 430.512 1806.27 434.011 1806.4 439.099C1806.52 443.551 1808.91 447.177 1813.55 449.976C1818.2 452.774 1824.27 454.174 1831.78 454.174C1836.74 454.174 1840.84 452.933 1844.08 450.453C1847.33 447.972 1848.95 444.76 1848.95 440.816C1848.95 434.074 1843.35 430.131 1832.16 428.986C1825.54 428.222 1819.69 427.237 1814.6 426.028C1809.51 424.82 1805.25 423.166 1801.82 421.067C1798.38 418.968 1795.78 416.265 1793.99 412.957C1792.21 409.65 1791.32 405.515 1791.32 400.554C1791.32 395.974 1792.25 391.776 1794.09 387.96C1795.93 384.144 1798.51 380.9 1801.82 378.229C1805.13 375.557 1809.07 373.458 1813.65 371.932C1818.23 370.405 1823.32 369.642 1828.91 369.642Z"/>
</g>
</g>
</svg>
